Coordinates
version=1
nRows=17
nColumns=33
inDegrees=yes

Units are S.I. units (second, meters, Newtons, ...)
Angles are in degrees.

endheader
time	ground_thorax_rot_x	ground_thorax_rot_y	ground_thorax_rot_z	ground_thorax_tx	ground_thorax_ty	ground_thorax_tz	clav_prot_r	clav_elev_r	scapula_abduction_r	scapula_elevation_r	scapula_upward_rot_r	scapula_winging_r	shoulder_elv_r	plane_of_elev_r	axial_rot_r	elbow_flexion_r	pro_sup_r	wrist_flex_r	wrist_dev_r	clav_prot_l	clav_elev_l	scapula_abduction_l	scapula_elevation_l	scapula_upward_rot_l	scapula_winging_l	shoulder_elv_l	plane_of_elev_l	axial_rot_l	elbow_flexion_l	pro_sup_l	wrist_flex_l	wrist_dev_l
      7.29000000	     38.47163861	     13.05308559	     16.05678523	   -106.27182900	    780.88872897	      6.33059256	     17.55700169	     39.18491137	     41.58862638	     45.00000000	    -38.27408633	  -1879.38609790	  -3711.79670556	    143.52055028	    179.99999979	   1089.60198055	     48.63171912	     21.76934290	     12.60368900	      5.57178993	    -45.00000000	    -39.15727609	     45.00000000	    -41.72562721	   1165.47051177	  -1175.70423632	    134.09018326	   -179.99999979	   -350.77736334	     42.18256031	      7.61354602	    -21.38617698
      7.30000000	     38.53003236	     12.99588983	     15.88817812	   -108.19387488	    782.05893631	      6.12444056	     17.50286297	     39.21175450	     41.57873606	     45.00000000	    -38.32473183	  -1879.54430881	  -3711.59779028	    143.48539416	    179.99999979	   1089.73138145	     48.72056624	     21.83173706	     12.50519848	      5.62167292	    -45.00000000	    -39.20846277	     45.00000000	    -41.61902539	   1165.72841194	  -1175.52212879	    134.05592411	   -179.99999979	   -350.70705408	     41.17732162	      7.75048533	    -21.40478065
      7.31000000	     38.59929763	     12.87476279	     15.64481147	   -110.22787365	    783.25277468	      5.94567225	     17.42067450	     39.25649698	     41.58203926	     45.00000000	    -38.30891354	  -1879.70461212	  -3711.37115929	    143.45715585	    179.99999979	   1089.83096194	     48.82068398	     21.88095533	     12.40125117	      5.65722320	    -45.00000000	    -39.33380630	     45.00000000	    -41.36518342	   1165.98221454	  -1175.35870719	    134.04675684	   -179.99999979	   -350.66128156	     40.42227934	      7.82496494	    -21.41957810
      7.32000000	     38.61836744	     12.85631822	     15.50335061	   -112.35894254	    784.47622863	      5.78277830	     17.41563614	     39.33841828	     41.49111178	     45.00000000	    -38.40563084	  -1879.81313371	  -3711.09853580	    143.42603670	    179.99999979	   1089.98761843	     48.91350802	     21.91072703	     12.27648174	      5.78529774	    -45.00000000	    -39.47365237	     45.00000000	    -41.31923874	   1166.22716123	  -1175.12937654	    134.07453650	   -179.99999979	   -350.51822998	     39.84149778	      7.84784373	    -21.44271142
      7.33000000	     38.75291622	     12.58211166	     15.15663678	   -114.57753625	    785.73379735	      5.62755432	     17.20967468	     39.12150685	     41.62674332	     45.00000000	    -38.10202585	  -1880.18183524	  -3711.10000727	    143.40944220	    179.99999979	   1090.20544757	     48.99118608	     22.02278951	     12.17927565	      5.74088356	    -45.00000000	    -39.54259338	     45.00000000	    -40.79933405	   1166.62038381	  -1175.18373449	    134.08405479	   -179.99999979	   -350.40156198	     39.51918460	      7.78504962	    -21.48096071
      7.34000000	     38.71403311	     12.77162402	     15.21061857	   -116.87621752	    787.02429131	      5.47583248	     17.28125197	     39.31793257	     41.45835313	     45.00000000	    -38.52740735	  -1880.15945384	  -3710.68257546	    143.37669573	    179.99999979	   1090.23555093	     49.09108405	     22.01794419	     12.07414215	      5.90059756	    -45.00000000	    -39.56533882	     45.00000000	    -41.33019220	   1166.72931965	  -1174.71577315	    134.06646245	   -179.99999979	   -350.27812862	     39.30681962	      7.74033391	    -21.50825670
      7.35000000	     38.72879215	     12.77323782	     15.07537288	   -119.24771184	    788.34509264	      5.32584001	     17.24407668	     39.31651909	     41.33687679	     45.00000000	    -38.70921518	  -1880.32043429	  -3710.38530497	    143.26631038	    179.99999979	   1090.43286025	     49.16421123	     22.06667500	     11.95609934	      5.98362630	    -45.00000000	    -39.59843867	     45.00000000	    -41.47915304	   1167.00373628	  -1174.35783484	    134.02291985	   -179.99999979	   -350.03379225	     39.19129268	      7.65825499	    -21.57589072
      7.36000000	     38.68584697	     13.24642783	     15.75294833	   -121.68635555	    789.69101557	      5.17720380	     17.30120849	     38.76185147	     41.31118004	     45.00000000	    -39.73453714	  -1880.60043523	  -3710.03543524	    143.04025333	    179.99999979	   1090.57047419	     49.22331941	     22.14661221	     11.87543490	      6.43434599	    -45.00000000	    -39.05420418	     45.00000000	    -43.18557745	   1167.33288092	  -1173.83011930	    133.70299023	   -179.99999979	   -349.91375145	     39.11956180	      7.52578568	    -21.57100964
      7.37000000	     38.88921381	     12.62877432	     14.80338929	   -124.17914961	    791.05453212	      5.03028887	     16.88367660	     39.07085727	     41.42123200	     45.00000000	    -38.75560675	  -1880.81179511	  -3710.05636699	    143.23132821	    179.99999979	   1090.68166439	     49.26870138	     22.19515686	     11.73679283	      5.89483958	    -45.00000000	    -39.46903439	     45.00000000	    -41.33203519	   1167.60821628	  -1174.18719597	    133.99163812	   -179.99999979	   -349.88117962	     39.12171711	      7.44444122	    -21.66941751
      7.38000000	     38.94649528	     12.53669285	     14.53482470	   -126.72527909	    792.42969877	      4.88508294	     16.89686673	     39.23308772	     41.33556078	     45.00000000	    -38.62739895	  -1880.93883737	  -3709.87139505	    143.29129677	    179.99999979	   1090.82313712	     49.32876637	     22.23335444	     11.64253123	      6.09567088	    -45.00000000	    -39.68171064	     45.00000000	    -41.06134290	   1167.86873422	  -1174.03140989	    134.09698699	   -179.99999979	   -349.70780833	     39.17598283	      7.34121356	    -21.71547815
      7.39000000	     38.83609482	     13.18089656	     15.32917720	   -129.31308899	    793.80865098	      4.74165584	     17.06452555	     38.59111262	     41.20340744	     45.00000000	    -40.15604705	  -1881.20559005	  -3709.29806991	    142.88789120	    179.99999979	   1090.97170448	     49.34331345	     22.26684304	     11.52907620	      6.62559597	    -45.00000000	    -39.07194813	     45.00000000	    -43.20051424	   1168.20723051	  -1173.24069207	    133.64795505	   -179.99999979	   -349.48355198	     39.21916754	      7.20801727	    -21.73610371
      7.40000000	     38.87770948	     13.16693470	     15.21565825	   -131.93759805	    795.18751067	      4.59891486	     16.98049726	     38.50263176	     41.20115521	     45.00000000	    -40.29917208	  -1881.40699673	  -3709.11082500	    142.88087318	    179.99999979	   1091.08526483	     49.33344225	     22.31904341	     11.42639294	      6.70430730	    -45.00000000	    -39.06320458	     45.00000000	    -43.23384169	   1168.49877871	  -1173.04635969	    133.64920792	   -179.99999979	   -349.37395918	     39.21077196	      7.10827462	    -21.77972102
      7.41000000	     38.94322238	     13.10064212	     15.04762838	   -134.59306420	    796.56080218	      4.45542778	     16.95605537	     38.50663379	     41.10403733	     45.00000000	    -40.41413322	  -1881.58521966	  -3708.82134854	    142.79815668	    179.99999979	   1091.21715379	     49.32162539	     22.33785663	     11.31898990	      6.81927821	    -45.00000000	    -39.08206179	     45.00000000	    -43.22654188	   1168.79380725	  -1172.88271211	    133.63071502	   -179.99999979	   -349.25478857	     39.18406708	      7.04077932	    -21.82153590
      7.42000000	     38.99425554	     13.06787618	     14.91574539	   -137.27179967	    797.92490061	      4.30961163	     16.90432134	     38.45379557	     41.05848073	     45.00000000	    -40.60874513	  -1881.76500826	  -3708.58953269	    142.74163352	    179.99999979	   1091.32144759	     49.30178667	     22.35412415	     11.19754464	      6.88707640	    -45.00000000	    -39.08532281	     45.00000000	    -43.27100121	   1169.08216670	  -1172.71564062	    133.62733678	   -179.99999979	   -349.16240939	     39.11375335	      6.97321473	    -21.85786619
      7.43000000	     39.03211684	     12.97688590	     14.72331769	   -139.97927330	    799.27642332	      4.15962262	     16.87727395	     38.55172024	     40.94334429	     45.00000000	    -40.79744002	  -1881.86339980	  -3708.28912750	    142.66920585	    179.99999979	   1091.48323321	     49.26914137	     22.35726728	     11.08587189	      6.94288844	    -45.00000000	    -39.22995258	     45.00000000	    -43.26202795	   1169.34390636	  -1172.51504916	    133.69083652	   -179.99999979	   -349.04099314	     38.98723330	      6.94263327	    -21.90010266
      7.44000000	     39.06162678	     13.02901952	     14.77701389	   -142.69984189	    800.61356485	      4.00529316	     16.66316546	     38.21656666	     41.00355266	     45.00000000	    -41.08914311	  -1882.09805448	  -3708.16407386	    142.70070935	    179.99999979	   1091.55339141	     49.19699039	     22.41719897	     10.94726438	      6.96273886	    -45.00000000	    -39.01370181	     45.00000000	    -43.47818953	   1169.67213242	  -1172.35386717	    133.62138888	   -179.99999979	   -349.03045848	     38.74628042	      6.85782156	    -21.91372753
      7.45000000	     39.33485449	     12.20557832	     13.54531101	   -145.42705309	    801.93961629	      3.84787911	     16.10307069	     39.02261526	     40.93965464	     45.00000000	    -39.17320484	  -1882.13189500	  -3708.45165960	    143.29107447	    179.99999979	   1091.62042304	     49.18903715	     22.52005384	     10.90260553	      6.31860867	    -45.00000000	    -39.59703571	     45.00000000	    -40.95706100	   1169.81876347	  -1172.88834471	    134.15011317	   -179.99999979	   -349.03067628	     38.58254846	      6.80448388	    -21.98057219
